<?xml version="1.0" encoding="UTF-8" standalone="no"?>
<svg
   width="600px"
   height="800px"
   viewBox="0 0 600 800"
   version="1.1"
   id="svg292"
   sodipodi:docname="placeholder_player.svg"
   xml:space="preserve"
   inkscape:version="1.2.1 (9c6d41e410, 2022-07-14)"
   xmlns:inkscape="http://www.inkscape.org/namespaces/inkscape"
   xmlns:sodipodi="http://sodipodi.sourceforge.net/DTD/sodipodi-0.dtd"
   xmlns="http://www.w3.org/2000/svg"
   xmlns:svg="http://www.w3.org/2000/svg"
   xmlns:rdf="http://www.w3.org/1999/02/22-rdf-syntax-ns#"
   xmlns:cc="http://creativecommons.org/ns#"
   xmlns:dc="http://purl.org/dc/elements/1.1/"><defs
     id="defs296" /><sodipodi:namedview
     id="namedview294"
     pagecolor="#ffffff"
     bordercolor="#666666"
     borderopacity="1.0"
     inkscape:showpageshadow="2"
     inkscape:pageopacity="1"
     inkscape:pagecheckerboard="0"
     inkscape:deskcolor="#d1d1d1"
     showgrid="false"
     inkscape:zoom="0.96520076"
     inkscape:cx="1073.3518"
     inkscape:cy="678.6153"
     inkscape:window-width="3840"
     inkscape:window-height="2054"
     inkscape:window-x="-11"
     inkscape:window-y="-11"
     inkscape:window-maximized="1"
     inkscape:current-layer="svg292" /><!-- Generator: Sketch 52.4 (67378) - http://www.bohemiancoding.com/sketch --><title
     id="title286">player-placeholder-ub-800</title><desc
     id="desc288">Created with Sketch.</desc><g
     id="player-placeholder-ub-800"
     stroke="none"
     stroke-width="1"
     fill="none"
     fill-rule="evenodd"
     fill-opacity="0.502265"
     stroke-opacity="0.2"
     transform="matrix(1.0900258,0,0,0.99988118,-30.079441,0.05093437)" /><path
     id="path310"
     style="fill:#b3b3b3;stroke-width:1.75962"
     d="m 233.38746,278.96064 v -16.17295 c 0,-15.4141 -0.31137,-16.66824 -6.63641,-26.72903 -4.91825,-7.82308 -6.93655,-13.36603 -7.79563,-21.40954 -0.89381,-8.36853 -1.9206,-11.06475 -4.48472,-11.77629 -5.38508,-1.49435 -7.04296,-4.32311 -10.1395,-17.30056 -3.76994,-15.79964 -3.81503,-28.55986 -0.11234,-31.79716 1.7751,-1.55201 2.85343,-5.7176 2.90536,-11.22353 0.0454,-4.81556 1.20455,-11.5032 2.57584,-14.86146 2.75665,-6.75109 1.97695,-13.32665 -2.25617,-19.02759 -2.47657,-3.3353 -2.44484,-4.06812 0.29064,-6.71089 1.6889,-1.63171 3.07075,-4.429388 3.07075,-6.217061 0,-4.088344 9.00267,-16.421131 16.41576,-22.488007 6.77397,-5.543807 26.6275,-11.839783 45.33986,-14.378205 16.88474,-2.290505 48.53614,0.284083 63.44343,5.160628 10.7211,3.50713 24.34635,13.774216 27.30319,20.573842 0.99512,2.288398 1.8093,6.727165 1.8093,9.863914 0,3.276996 1.08341,6.066699 2.54676,6.557659 1.76548,0.59232 2.59811,4.23597 2.71415,11.87705 0.32156,21.17564 2.73058,48.04261 4.30774,48.04261 4.31997,0 5.84956,7.14492 3.65608,17.07806 -2.71568,12.29782 -14.19116,33.92732 -18.00007,33.92732 -2.0219,0 -2.75206,2.03821 -2.75206,7.6823 0,5.49542 -1.60707,10.17201 -5.64554,16.42841 -4.84813,7.51078 -5.64191,10.43453 -5.61986,20.69973 0.0347,16.10971 6.91796,19.35761 6.91796,19.35761 z m -105.41316,520.99524 6.54015,-18.99774 c 2.90674,-29.32985 6.17682,-46.99442 9.81024,-52.99371 3.63341,-5.99928 3.63341,-18.33115 0,-36.9956 -29.79404,-42.6616 -48.324476,-69.32509 -55.591319,-79.99049 -7.266842,-10.66541 -11.263599,-40.66184 -11.990284,-89.98931 -9.44689,-3.33293 -15.260361,-6.99917 -17.440412,-10.99869 -2.180052,-3.99953 6.176813,-49.32747 25.070593,-135.98384 6.540155,-17.99787 23.253882,-32.66279 50.141182,-43.99478 26.88731,-11.33198 50.50453,-23.99714 70.85168,-37.99548 L 229.3467,278.0179 c 3.63342,-1.99976 5.45013,-8.33234 5.45013,-18.99774 0,-10.6654 -1.09003,-24.33044 -3.27008,-40.99513 l -2.18005,-4.9994 c -5.08679,5.33269 -9.44689,5.33269 -13.08031,0 -5.45013,-7.99905 -11.99028,-22.99727 -10.90026,-41.99501 0.72669,-12.66517 4.3601,-15.33151 10.90026,-7.99905 -1.45336,-24.66374 -1.45336,-41.99501 0,-51.99382 2.18005,-14.998222 14.17034,-47.994301 58.86139,-52.993707 44.69106,-4.999406 70.85168,19.997623 77.39183,39.995247 6.54016,19.99762 7.63019,54.99346 7.63019,61.99263 0,6.99917 13.08031,-17.99786 10.90025,10.9987 -2.18005,28.99655 -6.54015,30.99631 -8.7202,35.99572 -2.18005,4.9994 -7.63018,8.99893 -10.90026,5.99929 -3.27008,-2.99965 -2.18005,-2.99965 -4.3601,4.9994 -2.18006,7.99905 -2.18006,31.9962 0,40.99513 2.18005,8.99893 27.25064,25.99691 80.66191,48.99418 21.53877,9.27394 53.00892,18.01411 69.76165,38.99536 7.29505,9.13639 13.10852,27.46754 17.44041,54.99347 2.18005,27.99667 4.3601,46.32782 6.54015,54.99346 2.18006,8.66564 6.54016,24.66374 13.08031,47.9943 2.90674,3.33293 2.90674,5.666 0,6.99917 -2.90674,1.33317 -6.54015,2.99964 -10.90025,4.9994 -1.45337,3.33294 -2.18006,7.99905 -2.18006,13.99834 0,5.99929 -1.45336,25.99691 -4.3601,59.99287 l -6.54015,19.99763 -13.08031,15.99809 -54.50129,69.99169 v 8.99893 l 5.45013,49.99406 c 2.9779,13.37303 4.79462,22.70526 5.45012,27.99667 0.65551,5.29141 0.65551,10.62412 0,15.9981 H 205.36613 Z m 309.56733,-270.9678 -8.72021,57.99311 v 31.99619 l 20.71049,-31.99619 c 2.18005,-5.99929 3.27008,-10.9987 3.27008,-14.99822 0,-5.99929 -9.81023,-9.99881 -9.81023,-21.99739 0,-7.99905 -0.72669,-14.33162 -2.18006,-18.99774 z m -279.04661,75.99097 v -37.99549 l -4.3601,-16.99798 -5.45013,12.99846 -3.27008,10.99869 c 0,6.66588 1.09003,11.33199 3.27008,13.99834 2.18005,2.66635 5.45013,8.33234 9.81023,16.99798 z" /><metadata
     id="metadata313"><rdf:RDF><cc:Work
         rdf:about=""><dc:title>player-placeholder-ub-800</dc:title></cc:Work></rdf:RDF></metadata></svg>
