<?xml version="1.0" encoding="UTF-8" standalone="no"?>
<svg
   viewBox="0 0 17917018 2541551.7"
   version="1.1"
   id="svg18"
   sodipodi:docname="TournFox_LogowithFont_25072023.svg"
   inkscape:export-filename="TournFox_LogowithFont_grey_25072023.svg"
   inkscape:export-xdpi="96"
   inkscape:export-ydpi="96"
   width="17917018"
   height="2541551.8"
   xmlns:inkscape="http://www.inkscape.org/namespaces/inkscape"
   xmlns:sodipodi="http://sodipodi.sourceforge.net/DTD/sodipodi-0.dtd"
   xmlns="http://www.w3.org/2000/svg"
   xmlns:svg="http://www.w3.org/2000/svg">
  <sodipodi:namedview
     id="namedview18"
     pagecolor="#ffffff"
     bordercolor="#111111"
     borderopacity="1"
     inkscape:showpageshadow="0"
     inkscape:pageopacity="0"
     inkscape:pagecheckerboard="1"
     inkscape:deskcolor="#d1d1d1" />
  <defs
     id="defs1">
    <style
       id="style1">&#10;      .cls-1 {&#10;        fill: #fff;&#10;      }&#10;    </style>
  </defs>
  <g
     id="Ebene_6"
     data-name="Ebene 6"
     style="fill:#8c8ba0;fill-opacity:1"
     transform="translate(-2453105,-1398099.9)">
    <g
       id="g13"
       style="fill:#8c8ba0;fill-opacity:1">
      <path
         class="cls-1"
         d="m 1791.2,811.85 h -65.4 v -74.4 h 212.4 v 74.4 h -66.3 v 195.6 h -80.7 z"
         id="path1"
         style="fill:#8c8ba0;fill-opacity:1" />
      <path
         class="cls-1"
         d="m 1950.19,905.75 c 0,-18 2.55,-33.6 7.65,-46.8 5.1,-13.2 12.3,-24.2 21.6,-33 9.3,-8.8 20.55,-15.35 33.75,-19.65 13.2,-4.3 27.9,-6.45 44.1,-6.45 16.2,0 30.9,2.15 44.1,6.45 13.2,4.3 24.45,10.85 33.75,19.65 9.3,8.8 16.5,19.8 21.6,33 5.1,13.2 7.65,28.8 7.65,46.8 0,18 -2.55,33.6 -7.65,46.8 -5.1,13.2 -12.3,24.15 -21.6,32.85 -9.3,8.7 -20.55,15.2 -33.75,19.5 -13.2,4.3 -27.9,6.45 -44.1,6.45 -16.2,0 -30.9,-2.15 -44.1,-6.45 -13.2,-4.3 -24.45,-10.8 -33.75,-19.5 -9.3,-8.7 -16.5,-19.65 -21.6,-32.85 -5.1,-13.2 -7.65,-28.8 -7.65,-46.8 z m 107.1,36.6 c 7.4,0 13.4,-2.6 18,-7.8 4.6,-5.2 6.9,-14.8 6.9,-28.8 0,-24.6 -8.3,-36.9 -24.9,-36.9 -16.6,0 -24.9,12.3 -24.9,36.9 0,7 0.6,12.85 1.8,17.55 1.2,4.7 2.9,8.45 5.1,11.25 2.2,2.8 4.8,4.8 7.8,6 3,1.2 6.4,1.8 10.2,1.8 z"
         id="path2"
         style="fill:#8c8ba0;fill-opacity:1" />
      <path
         class="cls-1"
         d="m 2309.89,993.95 c -4.2,3.8 -8.5,6.85 -12.9,9.15 -4.4,2.3 -8.65,4.1 -12.75,5.4 -4.1,1.3 -8,2.15 -11.7,2.55 -3.7,0.4 -6.85,0.6 -9.45,0.6 -9.8,0 -19.05,-1.55 -27.75,-4.65 -8.7,-3.1 -16.3,-8.15 -22.8,-15.15 -6.5,-7 -11.65,-16.15 -15.45,-27.45 -3.8,-11.3 -5.7,-25.05 -5.7,-41.25 v -119.4 h 80.7 v 113.7 c 0,6.4 1.2,11.6 3.6,15.6 2.4,4 6.4,6 12,6 3.4,0 6.65,-0.95 9.75,-2.85 3.1,-1.9 6.25,-5.85 9.45,-11.85 v -120.6 h 80.7 v 203.7 h -67.5 z"
         id="path3"
         style="fill:#8c8ba0;fill-opacity:1" />
      <path
         class="cls-1"
         d="m 2485.09,803.75 8.7,11.4 c 6.2,-5.8 12.95,-9.8 20.25,-12 7.3,-2.2 14.25,-3.4 20.85,-3.6 4.4,-0.2 8.5,0 12.3,0.6 3.8,0.6 7.6,1.4 11.4,2.4 v 78.9 c -3.8,-0.8 -7.95,-1.5 -12.45,-2.1 -4.5,-0.6 -9.15,-0.9 -13.95,-0.9 -6.2,0 -12.25,0.65 -18.15,1.95 -5.9,1.3 -11.15,3.85 -15.75,7.65 v 119.4 h -80.7 v -203.7 z"
         id="path4"
         style="fill:#8c8ba0;fill-opacity:1" />
      <path
         class="cls-1"
         d="m 2651.59,803.75 10.2,13.5 c 4,-3.8 8.2,-6.85 12.6,-9.15 4.4,-2.3 8.7,-4.1 12.9,-5.4 4.2,-1.3 8.1,-2.15 11.7,-2.55 3.6,-0.4 6.8,-0.6 9.6,-0.6 9.8,0 19.05,1.55 27.75,4.65 8.7,3.1 16.3,8.15 22.8,15.15 6.5,7 11.65,16.15 15.45,27.45 3.8,11.3 5.7,25.05 5.7,41.25 v 119.4 h -80.7 v -113.7 c 0,-6.4 -1.2,-11.6 -3.6,-15.6 -2.4,-4 -6.4,-6 -12,-6 -3.4,0 -6.7,1 -9.9,3 -3.2,2 -6.3,5.9 -9.3,11.7 v 120.6 h -80.7 v -203.7 z"
         id="path5"
         style="fill:#8c8ba0;fill-opacity:1" />
      <path
         class="cls-1"
         d="m 3006.19,1007.45 h -71.4 l -9.6,-11.1 c -7.6,5.4 -15.7,9.4 -24.3,12 -8.6,2.6 -17.1,3.9 -25.5,3.9 -10.4,0 -19.8,-1.3 -28.2,-3.9 -8.4,-2.6 -15.55,-6.5 -21.45,-11.7 -5.9,-5.2 -10.45,-11.7 -13.65,-19.5 -3.2,-7.8 -4.8,-17 -4.8,-27.6 0,-12.6 2.75,-23.55 8.25,-32.85 5.5,-9.3 13.3,-17 23.4,-23.1 10.1,-6.1 22.15,-10.85 36.15,-14.25 14,-3.4 29.4,-5.6 46.2,-6.6 -0.4,-2.2 -2.4,-3.95 -6,-5.25 -3.6,-1.3 -9.6,-1.95 -18,-1.95 -5.8,0 -11.8,0.5 -18,1.5 -6.2,1 -12.35,2.3 -18.45,3.9 -6.1,1.6 -11.85,3.4 -17.25,5.4 -5.4,2 -10.1,4.1 -14.1,6.3 l -0.3,-67.2 c 9.6,-4 21.3,-7.65 35.1,-10.95 13.8,-3.3 28.8,-4.95 45,-4.95 18.4,0 33.8,1.95 46.2,5.85 12.4,3.9 22.35,9.3 29.85,16.2 7.5,6.9 12.85,15.05 16.05,24.45 3.2,9.4 4.8,19.5 4.8,30.3 z m -84.9,-80.7 c -4.4,0 -8.5,0.2 -12.3,0.6 -3.8,0.4 -7.15,1.15 -10.05,2.25 -2.9,1.1 -5.2,2.55 -6.9,4.35 -1.7,1.8 -2.55,4.1 -2.55,6.9 0,3.6 1.3,6.25 3.9,7.95 2.6,1.7 5.9,2.55 9.9,2.55 3.8,0 7.4,-0.95 10.8,-2.85 3.4,-1.9 5.5,-4.25 6.3,-7.05 0.6,-2 0.9,-3.7 0.9,-5.1 z"
         id="path6"
         style="fill:#8c8ba0;fill-opacity:1" />
      <path
         class="cls-1"
         d="m 3102.49,803.75 8.1,10.8 c 7.8,-6.2 15.75,-10.25 23.85,-12.15 8.1,-1.9 14.65,-2.85 19.65,-2.85 10.8,0 20.8,1.85 30,5.55 9.2,3.7 17,9.85 23.4,18.45 4.8,-5.4 9.75,-9.7 14.85,-12.9 5.1,-3.2 10.05,-5.6 14.85,-7.2 4.8,-1.6 9.2,-2.65 13.2,-3.15 4,-0.5 7.3,-0.75 9.9,-0.75 9.8,0 19,1.55 27.6,4.65 8.6,3.1 16.05,8.15 22.35,15.15 6.3,7 11.3,16.15 15,27.45 3.7,11.3 5.55,25.05 5.55,41.25 v 119.4 h -79.5 v -113.7 c 0,-6.4 -1.2,-11.6 -3.6,-15.6 -2.4,-4 -6.4,-6 -12,-6 -4.2,0 -8,1.4 -11.4,4.2 0.2,2 0.3,3.95 0.3,5.85 v 125.25 h -79.5 v -113.7 c 0,-6.4 -1.2,-11.6 -3.6,-15.6 -2.4,-4 -6.4,-6 -12,-6 -2.4,0 -4.75,0.45 -7.05,1.35 -2.3,0.9 -4.55,2.65 -6.75,5.25 v 128.7 h -79.5 v -203.7 z"
         id="path7"
         style="fill:#8c8ba0;fill-opacity:1" />
      <path
         class="cls-1"
         d="m 3445.38,935.15 c 3.4,4.4 8,7.75 13.8,10.05 5.8,2.3 13.4,3.75 22.8,4.35 4.2,0.4 9,0.5 14.4,0.3 5.4,-0.2 11,-0.55 16.8,-1.05 5.8,-0.5 11.55,-1.15 17.25,-1.95 5.7,-0.8 10.85,-1.7 15.45,-2.7 v 55.2 c -10.8,4.4 -22.65,7.5 -35.55,9.3 -12.9,1.8 -25.75,2.7 -38.55,2.7 -18.2,0 -34.35,-2.4 -48.45,-7.2 -14.1,-4.8 -26,-11.65 -35.7,-20.55 -9.7,-8.9 -17.1,-19.7 -22.2,-32.4 -5.1,-12.7 -7.65,-27.05 -7.65,-43.05 0,-15 2.05,-29.1 6.15,-42.3 4.1,-13.2 10.5,-24.65 19.2,-34.35 8.7,-9.7 19.7,-17.35 33,-22.95 13.3,-5.6 29.25,-8.4 47.85,-8.4 17.2,0 31.95,2.9 44.25,8.7 12.3,5.8 22.35,13.45 30.15,22.95 7.8,9.5 13.5,20.3 17.1,32.4 3.6,12.1 5.4,24.45 5.4,37.05 0,2.8 -0.05,5.9 -0.15,9.3 -0.1,3.4 -0.25,6.75 -0.45,10.05 -0.2,3.3 -0.45,6.25 -0.75,8.85 -0.3,2.6 -0.55,4.5 -0.75,5.7 z m 15,-70.2 c -4.8,0 -8.85,1.35 -12.15,4.05 -3.3,2.7 -5.75,6.35 -7.35,10.95 h 39.6 c -1,-4 -2.95,-7.5 -5.85,-10.5 -2.9,-3 -7.65,-4.5 -14.25,-4.5 z"
         id="path8"
         style="fill:#8c8ba0;fill-opacity:1" />
      <path
         class="cls-1"
         d="m 3658.38,803.75 10.2,13.5 c 4,-3.8 8.2,-6.85 12.6,-9.15 4.4,-2.3 8.7,-4.1 12.9,-5.4 4.2,-1.3 8.1,-2.15 11.7,-2.55 3.6,-0.4 6.8,-0.6 9.6,-0.6 9.8,0 19.05,1.55 27.75,4.65 8.7,3.1 16.3,8.15 22.8,15.15 6.5,7 11.65,16.15 15.45,27.45 3.8,11.3 5.7,25.05 5.7,41.25 v 119.4 h -80.7 v -113.7 c 0,-6.4 -1.2,-11.6 -3.6,-15.6 -2.4,-4 -6.4,-6 -12,-6 -3.4,0 -6.7,1 -9.9,3 -3.2,2 -6.3,5.9 -9.3,11.7 v 120.6 h -80.7 v -203.7 z"
         id="path9"
         style="fill:#8c8ba0;fill-opacity:1" />
      <path
         class="cls-1"
         d="m 3840.48,803.75 v -51.3 h 80.7 v 51.3 h 41.1 v 69 h -41.1 v 49.5 c 0,5.8 1.2,10.05 3.6,12.75 2.4,2.7 6.3,4.25 11.7,4.65 5.4,0.4 10.6,0.25 15.6,-0.45 5,-0.7 10,-1.75 15,-3.15 v 68.7 c -5.6,2.2 -12.05,3.85 -19.35,4.95 -7.3,1.1 -15.75,1.65 -25.35,1.65 -14.8,0 -27.35,-1.7 -37.65,-5.1 -10.3,-3.4 -18.75,-8.4 -25.35,-15 -6.6,-6.6 -11.4,-14.65 -14.4,-24.15 -3,-9.5 -4.5,-20.45 -4.5,-32.85 v -61.5 h -29.4 v -69 z"
         id="path10"
         style="fill:#8c8ba0;fill-opacity:1" />
      <path
         class="cls-1"
         d="m 1731.8,1367.45 v -270 H 1922 v 73.5 h -109.5 v 33.6 h 107.1 v 73.2 h -107.1 v 89.7 z"
         id="path11"
         style="fill:#8c8ba0;fill-opacity:1" />
      <path
         class="cls-1"
         d="m 1950.79,1265.75 c 0,-18 2.55,-33.6 7.65,-46.8 5.1,-13.2 12.3,-24.2 21.6,-33 9.3,-8.8 20.55,-15.35 33.75,-19.65 13.2,-4.3 27.9,-6.45 44.1,-6.45 16.2,0 30.9,2.15 44.1,6.45 13.2,4.3 24.45,10.85 33.75,19.65 9.3,8.8 16.5,19.8 21.6,33 5.1,13.2 7.65,28.8 7.65,46.8 0,18 -2.55,33.6 -7.65,46.8 -5.1,13.2 -12.3,24.15 -21.6,32.85 -9.3,8.7 -20.55,15.2 -33.75,19.5 -13.2,4.3 -27.9,6.45 -44.1,6.45 -16.2,0 -30.9,-2.15 -44.1,-6.45 -13.2,-4.3 -24.45,-10.8 -33.75,-19.5 -9.3,-8.7 -16.5,-19.65 -21.6,-32.85 -5.1,-13.2 -7.65,-28.8 -7.65,-46.8 z m 107.1,36.6 c 7.4,0 13.4,-2.6 18,-7.8 4.6,-5.2 6.9,-14.8 6.9,-28.8 0,-24.6 -8.3,-36.9 -24.9,-36.9 -16.6,0 -24.9,12.3 -24.9,36.9 0,7 0.6,12.85 1.8,17.55 1.2,4.7 2.9,8.45 5.1,11.25 2.2,2.8 4.8,4.8 7.8,6 3,1.2 6.4,1.8 10.2,1.8 z"
         id="path12"
         style="fill:#8c8ba0;fill-opacity:1" />
      <path
         class="cls-1"
         d="m 2176.99,1367.45 75,-104.1 -72,-99.6 h 91.5 l 26.1,36.3 26.4,-36.3 h 91.5 l -72,99.6 75,104.1 h -91.2 l -29.7,-40.8 -29.4,40.8 z"
         id="path13"
         style="fill:#8c8ba0;fill-opacity:1" />
    </g>
  </g>
  <g
     id="Ebene_5"
     data-name="Ebene 5"
     style="fill:#8c8ba0;fill-opacity:1"
     transform="translate(-2453105,-1398099.9)">
    <path
       class="cls-1"
       d="m 1085.93,1166.23 c -0.28,-3.82 -0.42,-7.89 -0.35,-12.19 0.19,-11.32 1.81,-21.31 3.83,-29.61 -5.43,4.03 -16.51,13.47 -22.64,29.61 -3.21,8.45 -4.06,16.1 -4.18,21.59 1.69,-1.99 5.78,-6.25 12.54,-8.36 4.48,-1.4 8.4,-1.3 10.8,-1.04 z"
       id="path14"
       style="fill:#8c8ba0;fill-opacity:1" />
    <path
       class="cls-1"
       d="m 887.02,1171.03 c 0.28,-3.82 0.42,-7.89 0.35,-12.19 -0.19,-11.32 -1.81,-21.31 -3.83,-29.61 5.43,4.03 16.51,13.47 22.64,29.61 3.21,8.45 4.06,16.1 4.18,21.59 -1.69,-1.99 -5.78,-6.25 -12.54,-8.36 -4.48,-1.4 -8.4,-1.3 -10.8,-1.04 z"
       id="path15"
       style="fill:#8c8ba0;fill-opacity:1" />
  </g>
  <g
     id="Ebene_2"
     data-name="Ebene 2"
     style="fill:#8c8ba0;fill-opacity:1"
     transform="translate(-2453105,-1398099.9)">
    <path
       class="cls-1"
       d="m 752.55,1328.1 c 28.73,20.28 59.86,45.46 91.02,76.59 73.86,73.77 118.1,151.15 144.54,209.24 19.07,-52.25 56.33,-131.92 129.61,-206.46 34.9,-35.5 70.11,-61.83 100.7,-81.19 -15.14,-32.61 -30.28,-65.22 -45.42,-97.83 -29.33,17.93 -66.71,44.74 -104.12,83.56 -38.16,39.6 -63.88,78.77 -80.78,109.18 -23.55,-35.27 -55.12,-76.19 -96.81,-117.5 -30.84,-30.56 -61.17,-55.34 -88.63,-75.24 -7.34,18.89 -16.4,39.33 -27.66,60.72 -7.39,14.04 -14.95,27.01 -22.45,38.94 z"
       id="path16"
       style="fill:#8c8ba0;fill-opacity:1" />
    <path
       class="cls-1"
       d="m 985.48,983.25 c 16.6,-23.45 37.77,-49.87 64.42,-76.83 29.75,-30.1 59.01,-53.48 84.51,-71.34 l 5.49,29.63 c 30,-26.34 60,-52.68 90,-79.03 V 572.75 c -45.89,15.79 -99.98,38.96 -156.95,73.54 -32.23,19.57 -60.45,39.79 -84.85,59.27 C 952.39,679.49 909.38,651.69 858.92,625.44 816.18,603.2 775.74,586.06 739.28,572.76 V 783.5 c 28.9,22.32 57.81,44.64 86.71,66.95 3.29,-6.22 6.59,-12.44 9.88,-18.66 18.39,9.83 39.19,22.98 60.37,40.61 45.97,38.27 73.43,80.76 89.24,110.86 z"
       id="path17"
       style="fill:#8c8ba0;fill-opacity:1" />
  </g>
  <g
     id="Ebene_4"
     data-name="Ebene 4"
     style="fill:#8c8ba0;fill-opacity:1"
     transform="translate(-2453105,-1398099.9)">
    <path
       class="cls-1"
       d="m 1488.28,618.83 c -17.82,8.36 -36.04,17.27 -54.59,26.76 -20.82,10.65 -40.81,21.39 -59.95,32.11 20.7,18.91 41.39,37.82 62.09,56.74 -87.62,39.24 -190.94,95.21 -297.59,175.56 -58.77,44.27 -109.45,89.09 -152.75,131.67 C 932,992.95 869.98,941.64 798.9,890.73 705.08,823.54 615.06,771.1 534.49,730.16 c 19.98,-18.2 39.96,-36.4 59.95,-54.59 -38.89,-18.91 -77.79,-37.82 -116.68,-56.74 -0.38,48.02 5.01,126.03 39.61,214.1 38.43,97.84 95.21,163.04 130.6,198.04 -23.19,16.77 -46.39,33.54 -69.58,50.31 50,8.74 132.87,29.88 219.45,86.71 71.43,46.89 118.5,100.42 146.66,138.09 h 89.92 c 15.32,-31.7 57.78,-108.75 148.8,-164.85 89.92,-55.43 176.69,-59.24 211.95,-58.88 -23.91,-18.55 -47.81,-37.11 -71.72,-55.66 30.94,-30.75 68.81,-75.44 100.62,-135.95 58.32,-110.91 64.97,-215.42 64.23,-271.9 z m -584.79,584.02 c -13.51,-9.56 -26.72,-18.24 -39.48,-26.11 -6.08,-14.69 -13.03,-29.81 -21.02,-45.22 -35.13,-67.81 -78.8,-119.37 -118.45,-157.3 33.18,12.8 104.54,45.55 163.03,120.36 46.08,58.92 63.88,117.99 71.33,151.57 -16.46,-14.17 -34.9,-28.78 -55.41,-43.31 z m 221.62,-71.33 c -7.98,15.41 -14.94,30.53 -21.02,45.22 -12.77,7.87 -25.98,16.55 -39.48,26.11 -20.51,14.52 -38.94,29.14 -55.41,43.31 7.44,-33.58 25.25,-92.65 71.33,-151.57 58.5,-74.81 129.86,-107.57 163.03,-120.36 -39.65,37.93 -83.33,89.49 -118.45,157.3 z"
       id="path18"
       style="fill:#8c8ba0;fill-opacity:1" />
  </g>
</svg>
