<?xml version="1.0" encoding="UTF-8"?>
<svg xmlns="http://www.w3.org/2000/svg" viewBox="0 0 2072.46 2441.03">
  <defs>
    <style>
      .cls-1 {
        fill: #fff;
      }
    </style>
  </defs>
  <g id="Ebene_5" data-name="Ebene 5">
    <path class="cls-1" d="m1085.93,1166.23c-.28-3.82-.42-7.89-.35-12.19.19-11.32,1.81-21.31,3.83-29.61-5.43,4.03-16.51,13.47-22.64,29.61-3.21,8.45-4.06,16.1-4.18,21.59,1.69-1.99,5.78-6.25,12.54-8.36,4.48-1.4,8.4-1.3,10.8-1.04Z"/>
    <path class="cls-1" d="m887.02,1171.03c.28-3.82.42-7.89.35-12.19-.19-11.32-1.81-21.31-3.83-29.61,5.43,4.03,16.51,13.47,22.64,29.61,3.21,8.45,4.06,16.1,4.18,21.59-1.69-1.99-5.78-6.25-12.54-8.36-4.48-1.4-8.4-1.3-10.8-1.04Z"/>
  </g>
  <g id="Ebene_2" data-name="Ebene 2">
    <path class="cls-1" d="m752.55,1328.1c28.73,20.28,59.86,45.46,91.02,76.59,73.86,73.77,118.1,151.15,144.54,209.24,19.07-52.25,56.33-131.92,129.61-206.46,34.9-35.5,70.11-61.83,100.7-81.19-15.14-32.61-30.28-65.22-45.42-97.83-29.33,17.93-66.71,44.74-104.12,83.56-38.16,39.6-63.88,78.77-80.78,109.18-23.55-35.27-55.12-76.19-96.81-117.5-30.84-30.56-61.17-55.34-88.63-75.24-7.34,18.89-16.4,39.33-27.66,60.72-7.39,14.04-14.95,27.01-22.45,38.94Z"/>
    <path class="cls-1" d="m985.48,983.25c16.6-23.45,37.77-49.87,64.42-76.83,29.75-30.1,59.01-53.48,84.51-71.34l5.49,29.63c30-26.34,60-52.68,90-79.03v-212.93c-45.89,15.79-99.98,38.96-156.95,73.54-32.23,19.57-60.45,39.79-84.85,59.27-35.71-26.07-78.72-53.87-129.18-80.12-42.74-22.24-83.18-39.38-119.64-52.68v210.74c28.9,22.32,57.81,44.64,86.71,66.95,3.29-6.22,6.59-12.44,9.88-18.66,18.39,9.83,39.19,22.98,60.37,40.61,45.97,38.27,73.43,80.76,89.24,110.86Z"/>
  </g>
  <g id="Ebene_4" data-name="Ebene 4">
    <path class="cls-1" d="m1488.28,618.83c-17.82,8.36-36.04,17.27-54.59,26.76-20.82,10.65-40.81,21.39-59.95,32.11,20.7,18.91,41.39,37.82,62.09,56.74-87.62,39.24-190.94,95.21-297.59,175.56-58.77,44.27-109.45,89.09-152.75,131.67-53.49-48.72-115.51-100.03-186.59-150.94-93.82-67.19-183.84-119.63-264.41-160.57,19.98-18.2,39.96-36.4,59.95-54.59-38.89-18.91-77.79-37.82-116.68-56.74-.38,48.02,5.01,126.03,39.61,214.1,38.43,97.84,95.21,163.04,130.6,198.04-23.19,16.77-46.39,33.54-69.58,50.31,50,8.74,132.87,29.88,219.45,86.71,71.43,46.89,118.5,100.42,146.66,138.09h89.92c15.32-31.7,57.78-108.75,148.8-164.85,89.92-55.43,176.69-59.24,211.95-58.88-23.91-18.55-47.81-37.11-71.72-55.66,30.94-30.75,68.81-75.44,100.62-135.95,58.32-110.91,64.97-215.42,64.23-271.9Zm-584.79,584.02c-13.51-9.56-26.72-18.24-39.48-26.11-6.08-14.69-13.03-29.81-21.02-45.22-35.13-67.81-78.8-119.37-118.45-157.3,33.18,12.8,104.54,45.55,163.03,120.36,46.08,58.92,63.88,117.99,71.33,151.57-16.46-14.17-34.9-28.78-55.41-43.31Zm221.62-71.33c-7.98,15.41-14.94,30.53-21.02,45.22-12.77,7.87-25.98,16.55-39.48,26.11-20.51,14.52-38.94,29.14-55.41,43.31,7.44-33.58,25.25-92.65,71.33-151.57,58.5-74.81,129.86-107.57,163.03-120.36-39.65,37.93-83.33,89.49-118.45,157.3Z"/>
  </g>
</svg>